<?xml version="1.0" encoding="utf-8"?>
<!-- Generator: Adobe Illustrator 23.0.3, SVG Export Plug-In . SVG Version: 6.00 Build 0)  -->
<svg version="1.1" id="Layer_1" xmlns="http://www.w3.org/2000/svg" xmlns:xlink="http://www.w3.org/1999/xlink" x="0px" y="0px"
	 viewBox="0 0 400 60" style="enable-background:new 0 0 400 60;" xml:space="preserve">
<style type="text/css">
	.st0{fill:#FFFFFF;}
	.st1{fill:#D5522B;}
</style>
<g>
	<path class="st0" d="M170.22,10.27c-8.9-6.63-23.61-10.16-33.84-2.88c-11.26,8.01-17.18,23.72-9.81,31.47s9.93,3.64,17.22,10.74
		s18.32,11.47,29.81-2.59S178.16,16.18,170.22,10.27z"/>
	<g>
		<path class="st0" d="M26.68,26.88c0.46,0.48,0.7,1.07,0.7,1.78v8.68c0,0.96-0.42,1.69-1.27,2.21c-2.68,1.67-5.61,2.5-8.8,2.5
			c-2.7,0-5.2-0.66-7.49-1.99S5.7,36.96,4.36,34.7c-1.34-2.25-2.01-4.71-2.01-7.39c0-2.67,0.67-5.14,2.01-7.39
			c1.34-2.25,3.15-4.04,5.45-5.36c2.29-1.32,4.79-1.99,7.49-1.99c2.7,0,5.05,0.55,7.04,1.64c0.41,0.22,0.72,0.51,0.92,0.86
			c0.2,0.35,0.31,0.74,0.31,1.15c0,0.68-0.23,1.28-0.68,1.78c-0.45,0.51-1,0.76-1.66,0.76c-0.41,0-0.86-0.11-1.35-0.33
			c-1.47-0.63-3-0.94-4.59-0.94c-1.75,0-3.36,0.44-4.83,1.33C11,19.7,9.83,20.9,8.97,22.4c-0.86,1.5-1.29,3.14-1.29,4.91
			c0,1.77,0.43,3.41,1.29,4.91c0.86,1.5,2.03,2.7,3.5,3.58c1.47,0.89,3.08,1.33,4.83,1.33c0.76,0,1.58-0.07,2.46-0.21
			c0.87-0.14,1.64-0.31,2.29-0.53v-5.32H18.2c-0.71,0-1.3-0.23-1.78-0.7c-0.48-0.46-0.72-1.05-0.72-1.76c0-0.71,0.24-1.3,0.72-1.76
			c0.48-0.46,1.07-0.7,1.78-0.7h6.72C25.63,26.17,26.21,26.41,26.68,26.88z"/>
		<path class="st0" d="M35.67,40.93c-0.48,0.48-1.07,0.72-1.78,0.72c-0.68,0-1.26-0.24-1.72-0.72c-0.46-0.48-0.7-1.07-0.7-1.78
			v-25.3c0-0.71,0.24-1.3,0.72-1.78c0.48-0.48,1.07-0.72,1.78-0.72c0.68,0,1.26,0.24,1.72,0.72c0.46,0.48,0.7,1.07,0.7,1.78v25.3
			C36.38,39.86,36.14,40.45,35.67,40.93z"/>
		<path class="st0" d="M60.46,36.59c-0.98,1.73-2.33,3.08-4.03,4.03c-1.71,0.96-3.58,1.43-5.63,1.43c-2.07,0-3.96-0.48-5.65-1.43
			c-1.69-0.96-3.03-2.3-4.01-4.03c-0.98-1.73-1.47-3.69-1.47-5.88c0-2.18,0.49-4.14,1.47-5.88c0.98-1.73,2.32-3.08,4.01-4.05
			c1.69-0.97,3.58-1.45,5.65-1.45c2.05,0,3.92,0.48,5.63,1.45c1.71,0.97,3.05,2.32,4.03,4.05c0.98,1.73,1.47,3.69,1.47,5.88
			C61.93,32.9,61.44,34.85,60.46,36.59z M56.18,27.13c-0.56-1.05-1.31-1.86-2.25-2.44c-0.94-0.57-1.99-0.86-3.13-0.86
			s-2.19,0.29-3.13,0.86c-0.94,0.57-1.69,1.39-2.25,2.44c-0.56,1.05-0.84,2.25-0.84,3.58c0,1.34,0.28,2.52,0.84,3.56
			c0.56,1.04,1.31,1.84,2.25,2.42c0.94,0.57,1.99,0.86,3.13,0.86s2.19-0.29,3.13-0.86c0.94-0.57,1.69-1.38,2.25-2.42
			c0.56-1.04,0.84-2.22,0.84-3.56C57.02,29.37,56.74,28.18,56.18,27.13z"/>
		<path class="st0" d="M81.67,20.78c1.53,0.97,2.74,2.31,3.62,4.03c0.89,1.72,1.33,3.67,1.33,5.86c0,2.18-0.44,4.14-1.31,5.88
			c-0.87,1.73-2.07,3.08-3.58,4.05c-1.51,0.97-3.19,1.45-5.02,1.45c-1.31,0-2.55-0.27-3.71-0.8c-1.16-0.53-2.12-1.18-2.89-1.94v0.25
			c0,0.71-0.23,1.3-0.7,1.78c-0.46,0.48-1.05,0.72-1.76,0.72c-0.71,0-1.3-0.23-1.76-0.7c-0.46-0.46-0.7-1.06-0.7-1.8V13.84
			c0-0.71,0.23-1.3,0.7-1.78c0.46-0.48,1.05-0.72,1.76-0.72c0.71,0,1.3,0.24,1.76,0.72c0.46,0.48,0.7,1.07,0.7,1.78v8.56
			c0.66-0.82,1.57-1.54,2.74-2.15c1.17-0.61,2.4-0.92,3.69-0.92C78.43,19.33,80.14,19.81,81.67,20.78z M80.24,35.58
			c1.12-1.31,1.68-2.95,1.68-4.91c0-1.97-0.55-3.6-1.66-4.89c-1.11-1.3-2.55-1.94-4.32-1.94c-1.77,0-3.22,0.65-4.34,1.94
			c-1.12,1.3-1.68,2.93-1.68,4.89c0,1.97,0.56,3.6,1.68,4.91c1.12,1.31,2.57,1.96,4.34,1.96C77.68,37.55,79.12,36.89,80.24,35.58z"
			/>
		<path class="st0" d="M109.39,20.02c0.46,0.46,0.7,1.06,0.7,1.8v17.32c0,0.71-0.23,1.3-0.7,1.78c-0.46,0.48-1.05,0.72-1.76,0.72
			c-0.71,0-1.29-0.23-1.74-0.7c-0.45-0.46-0.69-1.05-0.72-1.76c-0.68,0.79-1.6,1.47-2.76,2.03c-1.16,0.56-2.38,0.84-3.67,0.84
			c-1.88,0-3.59-0.48-5.12-1.45c-1.53-0.97-2.74-2.31-3.62-4.03c-0.89-1.72-1.33-3.67-1.33-5.85c0-2.18,0.44-4.14,1.31-5.88
			c0.87-1.73,2.07-3.08,3.58-4.05c1.51-0.97,3.19-1.45,5.02-1.45c1.31,0,2.54,0.24,3.69,0.72c1.15,0.48,2.12,1.08,2.91,1.82v-0.04
			c0-0.71,0.23-1.3,0.7-1.78c0.46-0.48,1.05-0.72,1.76-0.72C108.34,19.33,108.92,19.56,109.39,20.02z M103.7,35.6
			c1.12-1.3,1.68-2.93,1.68-4.89s-0.56-3.6-1.68-4.91c-1.12-1.31-2.57-1.97-4.34-1.97c-1.75,0-3.18,0.65-4.3,1.97
			c-1.12,1.31-1.68,2.95-1.68,4.91s0.55,3.6,1.66,4.89c1.11,1.3,2.54,1.94,4.32,1.94S102.58,36.9,103.7,35.6z"/>
		<path class="st0" d="M119.19,40.93c-0.48,0.48-1.07,0.72-1.78,0.72c-0.68,0-1.26-0.24-1.72-0.72c-0.46-0.48-0.7-1.07-0.7-1.78
			v-25.3c0-0.71,0.24-1.3,0.72-1.78c0.48-0.48,1.07-0.72,1.78-0.72c0.68,0,1.26,0.24,1.72,0.72c0.46,0.48,0.7,1.07,0.7,1.78v25.3
			C119.91,39.86,119.67,40.45,119.19,40.93z"/>
		<path class="st1" d="M159.79,39.43c0,0.71-0.23,1.29-0.7,1.74c-0.46,0.45-1,0.67-1.6,0.67c-0.49,0-0.94-0.15-1.33-0.45
			c-0.4-0.3-0.7-0.71-0.92-1.23l-2.13-4.95h-12.2l-2.13,5c-0.19,0.52-0.48,0.92-0.88,1.21c-0.4,0.29-0.83,0.43-1.29,0.43
			c-0.71,0-1.25-0.19-1.62-0.57c-0.37-0.38-0.55-0.9-0.55-1.56c0-0.25,0.04-0.5,0.12-0.78l10.2-24.48c0.22-0.55,0.55-0.97,0.98-1.27
			c0.44-0.3,0.93-0.42,1.47-0.37c0.49,0,0.95,0.14,1.37,0.43c0.42,0.29,0.73,0.69,0.92,1.21l10.07,23.99
			C159.72,38.8,159.79,39.13,159.79,39.43z M142.92,30.51h8.19l-4.14-9.58L142.92,30.51z"/>
		<path class="st1" d="M166.79,40.93c-0.52,0.48-1.12,0.72-1.8,0.72c-0.74,0-1.34-0.24-1.82-0.72c-0.48-0.48-0.72-1.07-0.72-1.78
			V15.48c0-0.71,0.25-1.3,0.74-1.78c0.49-0.48,1.12-0.72,1.88-0.72c0.68,0,1.27,0.24,1.76,0.72c0.49,0.48,0.74,1.07,0.74,1.78v23.67
			C167.57,39.86,167.31,40.45,166.79,40.93z"/>
		<path class="st0" d="M206.1,16.46c0,0.57-0.21,1.13-0.61,1.68c-0.44,0.57-1,0.86-1.68,0.86c-0.46,0-0.93-0.12-1.39-0.37
			c-1.34-0.63-2.78-0.94-4.34-0.94c-1.91,0-3.58,0.4-5,1.21c-1.42,0.81-2.51,1.94-3.28,3.4c-0.76,1.46-1.15,3.13-1.15,5.02
			c0,3.22,0.87,5.66,2.6,7.33s4.01,2.5,6.82,2.5c1.67,0,3.11-0.31,4.34-0.94c0.49-0.22,0.93-0.33,1.31-0.33c0.71,0,1.31,0.3,1.8,0.9
			c0.41,0.52,0.61,1.08,0.61,1.68c0,0.44-0.11,0.83-0.33,1.19s-0.53,0.63-0.94,0.82c-2.13,1.06-4.4,1.6-6.8,1.6
			c-2.68,0-5.13-0.57-7.37-1.7s-4.03-2.81-5.36-5.02c-1.34-2.21-2.01-4.89-2.01-8.02c0-2.78,0.63-5.28,1.9-7.49
			c1.27-2.21,3.02-3.94,5.26-5.18c2.24-1.24,4.76-1.86,7.57-1.86c2.43,0,4.68,0.53,6.76,1.6C205.67,14.81,206.1,15.51,206.1,16.46z"
			/>
		<path class="st0" d="M228.78,36.59c-0.98,1.73-2.33,3.08-4.03,4.03c-1.71,0.96-3.58,1.43-5.63,1.43c-2.08,0-3.96-0.48-5.65-1.43
			c-1.69-0.96-3.03-2.3-4.01-4.03c-0.98-1.73-1.47-3.69-1.47-5.88c0-2.18,0.49-4.14,1.47-5.88c0.98-1.73,2.32-3.08,4.01-4.05
			c1.69-0.97,3.58-1.45,5.65-1.45c2.05,0,3.92,0.48,5.63,1.45c1.71,0.97,3.05,2.32,4.03,4.05c0.98,1.73,1.47,3.69,1.47,5.88
			C230.26,32.9,229.76,34.85,228.78,36.59z M224.5,27.13c-0.56-1.05-1.31-1.86-2.25-2.44s-1.99-0.86-3.13-0.86s-2.19,0.29-3.13,0.86
			s-1.69,1.39-2.25,2.44c-0.56,1.05-0.84,2.25-0.84,3.58c0,1.34,0.28,2.52,0.84,3.56c0.56,1.04,1.31,1.84,2.25,2.42
			s1.99,0.86,3.13,0.86s2.19-0.29,3.13-0.86s1.69-1.38,2.25-2.42c0.56-1.04,0.84-2.22,0.84-3.56
			C225.34,29.37,225.06,28.18,224.5,27.13z"/>
		<path class="st0" d="M264.4,21.81c1.04,1.65,1.56,3.94,1.56,6.86v10.48c0,0.71-0.23,1.3-0.7,1.78s-1.05,0.72-1.76,0.72
			s-1.3-0.24-1.76-0.72s-0.7-1.07-0.7-1.78V28.66c0-1.5-0.29-2.68-0.88-3.54s-1.62-1.29-3.09-1.29c-1.53,0-2.72,0.46-3.58,1.37
			c-0.86,0.92-1.29,2.07-1.29,3.46v10.48c0,0.71-0.23,1.3-0.7,1.78s-1.05,0.72-1.76,0.72c-0.71,0-1.3-0.24-1.76-0.72
			c-0.46-0.48-0.7-1.07-0.7-1.78V28.66c0-1.5-0.29-2.68-0.88-3.54s-1.62-1.29-3.09-1.29c-1.53,0-2.72,0.46-3.58,1.37
			c-0.86,0.92-1.29,2.07-1.29,3.46v10.48c0,0.71-0.23,1.3-0.7,1.78c-0.46,0.48-1.05,0.72-1.76,0.72c-0.71,0-1.3-0.24-1.76-0.72
			c-0.46-0.48-0.7-1.07-0.7-1.78V22.24c0-0.71,0.23-1.3,0.7-1.78c0.46-0.48,1.05-0.72,1.76-0.72c0.71,0,1.3,0.24,1.76,0.72
			c0.46,0.48,0.7,1.07,0.7,1.78v0.66c0.74-0.98,1.67-1.82,2.8-2.52c1.13-0.7,2.4-1.04,3.79-1.04c3.44,0,5.64,1.5,6.59,4.5
			c0.63-1.15,1.58-2.18,2.85-3.11c1.27-0.93,2.71-1.39,4.32-1.39C261.5,19.33,263.37,20.15,264.4,21.81z"/>
		<path class="st0" d="M301.34,21.81c1.04,1.65,1.56,3.94,1.56,6.86v10.48c0,0.71-0.23,1.3-0.7,1.78s-1.05,0.72-1.76,0.72
			s-1.3-0.24-1.76-0.72s-0.7-1.07-0.7-1.78V28.66c0-1.5-0.29-2.68-0.88-3.54s-1.62-1.29-3.09-1.29c-1.53,0-2.72,0.46-3.58,1.37
			c-0.86,0.92-1.29,2.07-1.29,3.46v10.48c0,0.71-0.23,1.3-0.7,1.78s-1.05,0.72-1.76,0.72c-0.71,0-1.3-0.24-1.76-0.72
			c-0.46-0.48-0.7-1.07-0.7-1.78V28.66c0-1.5-0.29-2.68-0.88-3.54s-1.62-1.29-3.09-1.29c-1.53,0-2.72,0.46-3.58,1.37
			c-0.86,0.92-1.29,2.07-1.29,3.46v10.48c0,0.71-0.23,1.3-0.7,1.78c-0.46,0.48-1.05,0.72-1.76,0.72c-0.71,0-1.3-0.24-1.76-0.72
			c-0.46-0.48-0.7-1.07-0.7-1.78V22.24c0-0.71,0.23-1.3,0.7-1.78c0.46-0.48,1.05-0.72,1.76-0.72c0.71,0,1.3,0.24,1.76,0.72
			c0.46,0.48,0.7,1.07,0.7,1.78v0.66c0.74-0.98,1.67-1.82,2.8-2.52c1.13-0.7,2.4-1.04,3.79-1.04c3.44,0,5.64,1.5,6.59,4.5
			c0.63-1.15,1.58-2.18,2.85-3.11c1.27-0.93,2.71-1.39,4.32-1.39C298.43,19.33,300.3,20.15,301.34,21.81z"/>
		<path class="st0" d="M325.41,20.46c0.46,0.48,0.7,1.07,0.7,1.78v10.4c0,2.95-0.81,5.25-2.44,6.92s-3.94,2.5-6.94,2.5
			c-3,0-5.31-0.83-6.92-2.5c-1.61-1.67-2.42-3.97-2.42-6.92v-10.4c0-0.71,0.23-1.3,0.7-1.78c0.46-0.48,1.05-0.72,1.76-0.72
			c0.71,0,1.3,0.24,1.76,0.72c0.46,0.48,0.7,1.07,0.7,1.78v10.4c0,1.66,0.37,2.9,1.11,3.71c0.74,0.8,1.84,1.21,3.32,1.21
			c1.5,0,2.62-0.4,3.36-1.21c0.74-0.8,1.11-2.04,1.11-3.71v-10.4c0-0.71,0.23-1.3,0.7-1.78c0.46-0.48,1.05-0.72,1.76-0.72
			S324.95,19.98,325.41,20.46z"/>
		<path class="st0" d="M348.1,21.81c1.06,1.65,1.6,3.94,1.6,6.86v10.48c0,0.71-0.23,1.3-0.7,1.78s-1.05,0.72-1.76,0.72
			s-1.3-0.24-1.76-0.72s-0.7-1.07-0.7-1.78V28.66c0-1.5-0.31-2.68-0.94-3.54s-1.71-1.29-3.23-1.29c-1.58,0-2.83,0.46-3.73,1.37
			c-0.9,0.92-1.35,2.07-1.35,3.46v10.48c0,0.71-0.23,1.3-0.7,1.78s-1.05,0.72-1.76,0.72s-1.3-0.24-1.76-0.72s-0.7-1.07-0.7-1.78
			V22.24c0-0.71,0.23-1.3,0.7-1.78s1.05-0.72,1.76-0.72s1.3,0.24,1.76,0.72s0.7,1.07,0.7,1.78v0.7c0.74-0.98,1.7-1.83,2.89-2.54
			c1.19-0.71,2.49-1.06,3.91-1.06C345.11,19.33,347.03,20.15,348.1,21.81z"/>
		<path class="st0" d="M354.36,16.63c-0.38-0.3-0.57-0.83-0.57-1.6v-0.78c0-0.76,0.21-1.3,0.61-1.6c0.41-0.3,1.06-0.45,1.97-0.45
			c0.96,0,1.62,0.15,2.01,0.45c0.38,0.3,0.57,0.83,0.57,1.6v0.78c0,0.79-0.2,1.33-0.59,1.62s-1.07,0.43-2.03,0.43
			C355.4,17.08,354.74,16.93,354.36,16.63z M358.13,40.93c-0.46,0.48-1.05,0.72-1.76,0.72c-0.71,0-1.3-0.24-1.76-0.72
			c-0.46-0.48-0.7-1.07-0.7-1.78V22.24c0-0.71,0.23-1.3,0.7-1.78c0.46-0.48,1.05-0.72,1.76-0.72c0.71,0,1.3,0.24,1.76,0.72
			c0.46,0.48,0.7,1.07,0.7,1.78v16.91C358.82,39.86,358.59,40.45,358.13,40.93z"/>
		<path class="st0" d="M374.65,37.57c0.31,0.37,0.47,0.85,0.47,1.45c0,0.74-0.4,1.36-1.21,1.86c-0.8,0.51-1.71,0.76-2.72,0.76
			c-1.69,0-3.12-0.36-4.28-1.09c-1.16-0.72-1.74-2.26-1.74-4.61v-11.3h-1.88c-0.66,0-1.2-0.22-1.64-0.66
			c-0.44-0.44-0.66-0.98-0.66-1.64c0-0.63,0.22-1.15,0.66-1.58c0.44-0.42,0.98-0.63,1.64-0.63h1.88v-2.62c0-0.71,0.24-1.3,0.72-1.78
			c0.48-0.48,1.07-0.72,1.78-0.72c0.68,0,1.26,0.24,1.72,0.72c0.46,0.48,0.7,1.07,0.7,1.78v2.62h2.91c0.66,0,1.2,0.22,1.64,0.65
			c0.44,0.44,0.66,0.98,0.66,1.64c0,0.63-0.22,1.15-0.66,1.58c-0.44,0.42-0.98,0.63-1.64,0.63h-2.91v11.1
			c0,0.57,0.15,0.99,0.45,1.25c0.3,0.26,0.71,0.39,1.23,0.39c0.22,0,0.52-0.05,0.9-0.16c0.33-0.14,0.64-0.21,0.94-0.21
			C373.99,37.02,374.33,37.2,374.65,37.57z"/>
		<path class="st0" d="M396.98,20.46c0.46,0.48,0.7,1.07,0.7,1.78v17.4c0,3.55-0.96,6.13-2.87,7.76c-1.91,1.62-4.46,2.44-7.66,2.44
			c-0.93,0-1.88-0.08-2.85-0.23c-0.97-0.15-1.75-0.35-2.35-0.59c-1.34-0.57-2.01-1.37-2.01-2.38c0-0.19,0.04-0.41,0.12-0.65
			c0.16-0.6,0.44-1.06,0.84-1.37c0.4-0.31,0.83-0.47,1.29-0.47c0.27,0,0.53,0.04,0.78,0.12c0.19,0.08,0.53,0.22,1,0.41
			s0.98,0.35,1.52,0.47c0.53,0.12,1.08,0.18,1.66,0.18c1.94,0,3.36-0.42,4.28-1.25c0.91-0.83,1.37-2.26,1.37-4.28v-0.41
			c-1.42,1.77-3.63,2.66-6.63,2.66c-1.42,0-2.67-0.33-3.77-1c-1.09-0.67-1.94-1.6-2.54-2.79s-0.9-2.54-0.9-4.07V22.24
			c0-0.71,0.23-1.3,0.7-1.78c0.46-0.48,1.05-0.72,1.76-0.72c0.71,0,1.3,0.24,1.76,0.72c0.46,0.48,0.7,1.07,0.7,1.78v10.48
			c0,1.72,0.38,2.96,1.13,3.71s1.85,1.13,3.3,1.13c1.42,0,2.52-0.42,3.3-1.25c0.78-0.83,1.17-2.03,1.17-3.58V22.24
			c0-0.71,0.23-1.3,0.7-1.78c0.46-0.48,1.05-0.72,1.76-0.72S396.52,19.98,396.98,20.46z"/>
	</g>
</g>
<g>
</g>
<g>
</g>
<g>
</g>
<g>
</g>
<g>
</g>
<g>
</g>
<g>
</g>
<g>
</g>
<g>
</g>
<g>
</g>
<g>
</g>
<g>
</g>
<g>
</g>
<g>
</g>
<g>
</g>
</svg>
